<?xml version="1.0" encoding="UTF-8"?>
<svg xmlns="http://www.w3.org/2000/svg" viewBox="0 0 512 512" width="512" height="512">
  <!--
    Inspired by Font Awesome "fa-folder" + markdown "M↓" symbol.
    Monochrome / black-and-white, flat style.
  -->

  <!-- folder back tab -->
  <path d="M48 96 C48 74 66 56 88 56 L200 56 L232 88 L424 88 C446 88 464 106 464 128 L464 384 C464 406 446 424 424 424 L88 424 C66 424 48 406 48 384 Z"
        fill="#1a1a1a"/>

  <!-- folder front face (lighter to give depth) -->
  <path d="M48 160 L48 384 C48 406 66 424 88 424 L424 424 C446 424 464 406 464 384 L464 160 Z"
        fill="#2e2e2e"/>

  <!-- Markdown "M↓" symbol centered in folder -->
  <!-- M shape -->
  <path d="M154 224 L154 320 L182 320 L182 264 L214 304 L246 264 L246 320 L274 320 L274 224 L246 224 L214 264 L182 224 Z"
        fill="white"/>
  <!-- down-arrow -->
  <path d="M306 224 L306 288 L282 288 L320 336 L358 288 L334 288 L334 224 Z"
        fill="white"/>
</svg>
